# xmcd
#
# Track frame offsets:
#       150
#       14278
#       27093
#       39482
#       57430
#       71134
#       84148
#       96753
#       112269
#       125316
#       138843
#       150438
#
# Disc length: 2182 seconds
#
# Revision: 0
# Processed by: cddbd v1.5.2PL0 Copyright (c) Steve Scherf et al.
# Submitted via: WaveLab 6.10
#
DISCID=9308840c
DTITLE=Junior Sisk and Rambler's Choice - Blue Side of the Blue Ridge
DYEAR=1900
DGENRE=
TTITLE0=The Wolf is at the Door
TTITLE1=You Let the Dog off the Chain
TTITLE2=Leaving Baker County
TTITLE3=How Could I Explain
TTITLE4=The Man in Red Camels
TTITLE5=Blue Side of the Blue Ridge
TTITLE6=Dust on the Bible
TTITLE7=I Did the Leaving for You
TTITLE8=Poor Mountain
TTITLE9=Little Bit of This, Little Bit of That
TTITLE10=The Man in the Moon
TTITLE11=Steel Rail Rider
EXTD=
EXTT0=
EXTT1=
EXTT2=
EXTT3=
EXTT4=
EXTT5=
EXTT6=
EXTT7=
EXTT8=
EXTT9=
EXTT10=
EXTT11=
PLAYORDER=
